<svg width="30" height="9" viewBox="0 0 30 9" fill="none" xmlns="http://www.w3.org/2000/svg">
<mask id="path-1-inside-1" fill="white">
<path fill-rule="evenodd" clip-rule="evenodd" d="M29.9993 4.49998L25.2938 0L25.2938 4L0 4L0 5L25.2938 5L25.2937 9L29.9993 4.49998Z"/>
</mask>
<path fill-rule="evenodd" clip-rule="evenodd" d="M29.9993 4.49998L25.2938 0L25.2938 4L0 4L0 5L25.2938 5L25.2937 9L29.9993 4.49998Z" fill="white"/>
<path d="M25.2938 0L25.9849 -0.722713L24.2938 -2.33999L24.2938 -3.8147e-06L25.2938 0ZM29.9993 4.49998L30.6904 5.2227L31.4461 4.49998L30.6904 3.77727L29.9993 4.49998ZM25.2938 4V5L26.2938 5L26.2938 4L25.2938 4ZM0 4L0 3H-1V4H0ZM0 5H-1V6H0L0 5ZM25.2938 5L26.2938 5L26.2938 4L25.2938 4V5ZM25.2937 9L24.2937 9L24.2937 11.34L25.9849 9.72271L25.2937 9ZM24.6026 0.722713L29.3081 5.2227L30.6904 3.77727L25.9849 -0.722713L24.6026 0.722713ZM26.2938 4L26.2938 3.8147e-06L24.2938 -3.8147e-06L24.2938 4L26.2938 4ZM0 5L25.2938 5V3L0 3L0 5ZM1 5L1 4H-1L-1 5H1ZM25.2938 4L0 4L0 6L25.2938 6V4ZM26.2937 9L26.2938 5L24.2938 5L24.2937 9L26.2937 9ZM29.3081 3.77727L24.6026 8.27729L25.9849 9.72271L30.6904 5.2227L29.3081 3.77727Z" fill="white" mask="url(#path-1-inside-1)"/>
</svg>
